<?xml version="1.0" encoding="UTF-8"?>
<svg width="800px" height="450px" viewBox="0 0 800 450" version="1.1" xmlns="http://www.w3.org/2000/svg" xmlns:xlink="http://www.w3.org/1999/xlink">
    <!-- Generator: Sketch 58 (84663) - https://sketch.com -->
    <title>Shape</title>
    <desc>Created with Sketch.</desc>
    <g id="Page-1" stroke="none" stroke-width="1" fill="none" fill-rule="evenodd">
        <g id="PC" fill="#3DDC84" fill-rule="nonzero">
            <g id="Android_Robot" transform="translate(0.000000, -1.000000)">
                <path d="M583.834868,337.102115 C565.450031,337.105578 550.543368,322.204531 550.539903,303.819694 C550.53644,285.434858 565.437486,270.528194 583.822323,270.524729 C602.20716,270.521266 617.113823,285.422312 617.117288,303.807149 C617.096562,322.181962 602.209672,337.074463 583.834868,337.102115 M215.921739,337.102115 C197.536902,337.105578 182.630239,322.204531 182.626774,303.819694 C182.62331,285.434858 197.524357,270.528194 215.909194,270.524729 C234.294031,270.521266 249.200694,285.422312 249.204159,303.807149 C249.186881,322.183392 234.297974,337.077911 215.921739,337.102115 M595.771627,136.598428 L662.292559,21.3832962 C664.767727,17.1018955 664.770776,11.8252317 662.300558,7.54097338 C659.830339,3.25671502 655.262139,0.615742832 650.316753,0.612885538 C645.371368,0.610028243 640.800118,3.24571994 638.324951,7.527121 L570.963491,124.197497 C519.452893,100.687789 461.600695,87.5968707 399.872031,87.5968707 C338.143366,87.5968707 280.297441,100.706606 228.786843,124.197497 L161.431655,7.527121 C158.959849,3.2445996 154.391109,0.605465223 149.446433,0.605465223 C144.501758,0.605465223 139.932362,3.24223678 137.459493,7.52414415 C134.986624,11.8060515 134.985969,17.0819572 137.457775,21.3644784 L203.984979,136.598428 C89.7546453,198.72854 11.6231293,314.370209 0.194450626,451 L799.562156,451 C788.120932,314.370209 709.995688,198.72854 595.771627,136.598428" id="Shape"></path>
            </g>
        </g>
    </g>
</svg>