<?xml version="1.0" encoding="UTF-8"?>
<svg width="60px" height="59px" viewBox="0 0 60 59" version="1.1" xmlns="http://www.w3.org/2000/svg" xmlns:xlink="http://www.w3.org/1999/xlink">
    <!-- Generator: Sketch 58 (84663) - https://sketch.com -->
    <title>GitHub</title>
    <desc>Created with Sketch.</desc>
    <g id="Page-1" stroke="none" stroke-width="1" fill="none" fill-rule="evenodd">
        <g id="PC" transform="translate(-280.000000, -345.000000)" fill="#959595">
            <path d="M309.997237,345 C293.433193,345 280,358.431351 280,375.000921 C280,388.255471 288.595107,399.49891 300.516283,403.465883 C302.01725,403.742135 302.564228,402.815771 302.564228,402.020166 C302.564228,401.309279 302.538445,399.42156 302.523712,396.918721 C294.179072,398.730931 292.418429,392.896498 292.418429,392.896498 C291.053746,389.430461 289.086835,388.507781 289.086835,388.507781 C286.362995,386.647687 289.293103,386.684521 289.293103,386.684521 C292.304245,386.896314 293.888087,389.776697 293.888087,389.776697 C296.564044,394.360631 300.910402,393.036465 302.619479,392.268486 C302.892047,390.331041 303.667393,389.008717 304.523773,388.259155 C297.862427,387.502225 290.858528,384.927561 290.858528,373.431812 C290.858528,370.15731 292.027993,367.47767 293.947021,365.381841 C293.637619,364.62307 292.608122,361.571411 294.241689,357.442371 C294.241689,357.442371 296.759262,356.635716 302.490561,360.517972 C304.8829,359.851285 307.450198,359.519783 310.000921,359.506891 C312.549802,359.519783 315.115258,359.851285 317.51128,360.517972 C323.238896,356.635716 325.752786,357.442371 325.752786,357.442371 C327.390037,361.571411 326.360539,364.62307 326.052979,365.381841 C327.97569,367.47767 329.135946,370.15731 329.135946,373.431812 C329.135946,384.957028 322.120998,387.493017 315.439393,388.235213 C316.514933,389.161576 317.474447,390.992204 317.474447,393.791553 C317.474447,397.800884 317.437613,401.036711 317.437613,402.020166 C317.437613,402.823138 317.979066,403.756868 319.500292,403.464041 C331.412259,399.48786 340,388.251788 340,375.000921 C340,358.431351 326.566807,345 309.997237,345" id="GitHub"></path>
        </g>
    </g>
</svg>