<?xml version="1.0" encoding="UTF-8"?>
<svg width="60px" height="60px" viewBox="0 0 60 60" version="1.1" xmlns="http://www.w3.org/2000/svg" xmlns:xlink="http://www.w3.org/1999/xlink">
    <!-- Generator: Sketch 58 (84663) - https://sketch.com -->
    <title>Twitter</title>
    <desc>Created with Sketch.</desc>
    <g id="Page-1" stroke="none" stroke-width="1" fill="none" fill-rule="evenodd">
        <g id="PC" transform="translate(-460.000000, -345.000000)" fill="#72BAEC" fill-rule="nonzero">
            <path d="M490,345 C506.568542,345 520,358.431458 520,375 C520,391.568542 506.568542,405 490,405 C473.431458,405 460,391.568542 460,375 C460,358.431458 473.431458,345 490,345 Z M497.845,362.175 C493.855,362.175 490.615,365.415 490.615,369.405 C490.615,369.975 490.675,370.53 490.81,371.055 C484.795,370.755 479.47,367.875 475.9,363.495 C475.285,364.56 474.925,365.805 474.925,367.125 C474.925,369.63 476.2,371.85 478.15,373.14 C476.965,373.11 475.855,372.78 474.88,372.24 L474.88,372.33 L474.88,372.33 C474.88,375.84 477.37,378.75 480.685,379.425 C480.085,379.59 479.44,379.68 478.78,379.68 C478.315,379.68 477.865,379.635 477.415,379.545 C478.33,382.425 481,384.51 484.165,384.57 C481.69,386.505 478.57,387.66 475.18,387.66 C474.595,387.66 474.025,387.63 473.455,387.555 C476.62,389.625 480.43,390.825 484.51,390.825 C497.815,390.825 505.09,379.8 505.09,370.245 C505.09,369.93 505.09,369.615 505.075,369.315 C506.485,368.295 507.715,367.02 508.69,365.565 C507.4,366.135 506.005,366.525 504.535,366.705 C506.035,365.805 507.175,364.395 507.715,362.7 C506.32,363.525 504.775,364.125 503.125,364.455 C501.805,363.045 499.93,362.175 497.845,362.175 Z" id="Twitter"></path>
        </g>
    </g>
</svg>